<?xml version="1.0" encoding="iso-8859-1"?>
<!-- Generator: Adobe Illustrator 19.0.0, SVG Export Plug-In . SVG Version: 6.00 Build 0)  -->
<svg version="1.1" id="Layer_1" xmlns="http://www.w3.org/2000/svg" xmlns:xlink="http://www.w3.org/1999/xlink" x="0px" y="0px"
	 viewBox="0 0 299.868 299.868" style="enable-background:new 0 0 299.868 299.868;" xml:space="preserve">
<g>
	<g>
		<g>
			<path d="M73.408,88.173c0.336,0,0.679-0.026,1.035-0.086c4.046-0.646,8.185-1.107,12.429-1.509
				c3.625-0.336,6.293-3.539,5.957-7.17c-0.336-3.618-3.46-6.366-7.17-5.951c-4.527,0.415-8.969,0.916-13.266,1.601
				c-3.598,0.567-6.05,3.954-5.49,7.546C67.418,85.846,70.218,88.173,73.408,88.173z"/>
			<path d="M38.257,103.119c1.568,0,3.157-0.56,4.435-1.7c2.768-2.517,5.779-4.626,9.206-6.432c3.216-1.7,4.448-5.707,2.741-8.916
				c-1.713-3.209-5.687-4.455-8.91-2.741c-4.349,2.3-8.35,5.107-11.902,8.31c-2.702,2.445-2.9,6.616-0.455,9.305
				C34.665,102.394,36.464,103.119,38.257,103.119z"/>
			<path d="M181.609,54.484c1.582,0,3.15-0.567,4.415-1.694c2.906-2.629,6.063-4.975,9.358-6.979
				c3.117-1.891,4.106-5.938,2.227-9.061c-1.891-3.117-5.944-4.079-9.061-2.214c-4.02,2.432-7.842,5.285-11.368,8.468
				c-2.689,2.432-2.906,6.603-0.461,9.305C178.018,53.753,179.81,54.484,181.609,54.484z"/>
			<path d="M216.088,37.838c0.362,0,0.705-0.026,1.081-0.079c3.209-0.527,6.478-0.784,9.72-0.784l1.931,0.026
				c0.053,0,0.125,0,0.191,0c3.552,0,6.471-2.827,6.583-6.412c0.086-3.625-2.781-6.656-6.412-6.768l-2.293-0.026
				c-3.967,0-7.928,0.323-11.842,0.956c-3.591,0.573-6.023,3.961-5.443,7.552C210.131,35.538,212.925,37.838,216.088,37.838z"/>
			<path d="M251.358,42.188c3.539,1.582,6.946,3.526,10.102,5.779c1.16,0.824,2.484,1.219,3.809,1.219
				c2.056,0,4.092-0.962,5.364-2.774c2.115-2.979,1.417-7.097-1.542-9.193c-3.862-2.741-8.02-5.107-12.33-7.051
				c-3.321-1.496-7.203-0.007-8.712,3.308C246.554,36.797,248.036,40.685,251.358,42.188z"/>
			<path d="M282.733,75.111c1.035,2.616,3.519,4.211,6.155,4.211c0.797,0,1.595-0.138,2.399-0.442
				c3.381-1.318,5.068-5.14,3.756-8.534c-1.713-4.409-3.888-8.686-6.438-12.679c-1.957-3.071-6.023-3.974-9.101-2.017
				c-3.078,1.957-3.98,6.036-2.023,9.101C279.576,68.027,281.342,71.506,282.733,75.111z"/>
			<path d="M112.045,84.482c0.224,0,0.442-0.013,0.652-0.04c4.402-0.442,8.824-0.982,13.246-1.694
				c3.592-0.573,6.03-3.967,5.45-7.559c-0.573-3.598-3.914-6.05-7.559-5.443c-4.152,0.666-8.303,1.166-12.435,1.582
				c-3.611,0.369-6.267,3.598-5.905,7.216C105.844,81.945,108.697,84.482,112.045,84.482z"/>
			<path d="M12.991,133.854c0.896,0.415,1.819,0.606,2.741,0.606c2.498,0,4.883-1.41,5.99-3.835
				c1.674-3.638,3.611-7.216,5.753-10.636c1.931-3.091,1.008-7.15-2.076-9.088c-3.078-1.918-7.144-1.002-9.088,2.076
				c-2.438,3.901-4.646,7.98-6.55,12.139C8.226,128.424,9.683,132.339,12.991,133.854z"/>
			<path d="M149.852,76.199c0.817,0,1.641-0.158,2.445-0.481c4.343-1.733,8.534-3.769,12.488-6.089
				c3.137-1.832,4.191-5.865,2.366-9.008c-1.825-3.124-5.865-4.185-9.009-2.366c-3.394,1.984-7.005,3.737-10.735,5.226
				c-3.387,1.351-5.035,5.186-3.684,8.574C144.771,74.63,147.242,76.199,149.852,76.199z"/>
			<path d="M18.48,201.329c-1.351-3.822-2.471-7.737-3.308-11.631c-0.771-3.559-4.27-5.839-7.829-5.055
				c-3.559,0.764-5.819,4.27-5.055,7.829c0.949,4.448,2.227,8.903,3.763,13.246c0.956,2.702,3.499,4.389,6.208,4.389
				c0.732,0,1.476-0.132,2.214-0.376C17.9,208.526,19.7,204.756,18.48,201.329z"/>
			<path d="M195.046,213.231l-9.18,9.173c-2.577,2.583-2.577,6.735,0,9.318c1.285,1.279,2.972,1.931,4.659,1.931
				c1.687,0,3.374-0.639,4.659-1.931l9.18-9.173c2.577-2.583,2.577-6.742,0-9.318C201.775,210.648,197.623,210.648,195.046,213.231z
				"/>
			<path d="M222.54,185.738l-9.18,9.18c-2.577,2.577-2.577,6.735,0,9.318c1.285,1.278,2.972,1.931,4.659,1.931
				c1.687,0,3.374-0.639,4.659-1.931l9.18-9.18c2.577-2.577,2.577-6.742,0-9.318C229.268,183.161,225.116,183.161,222.54,185.738z"
				/>
			<path d="M136.369,258.043c-3.796,1.292-7.71,2.346-11.671,3.143c-3.565,0.732-5.865,4.198-5.153,7.776
				c0.626,3.13,3.381,5.279,6.452,5.279c0.428,0,0.87-0.04,1.318-0.132c4.501-0.909,8.982-2.109,13.305-3.592
				c3.44-1.173,5.298-4.923,4.112-8.369C143.572,258.715,139.848,256.837,136.369,258.043z"/>
			<path d="M167.704,240.177c-3.064,2.616-6.307,5.061-9.668,7.275c-3.038,2.003-3.875,6.089-1.878,9.127
				c1.272,1.924,3.374,2.966,5.509,2.966c1.252,0,2.511-0.356,3.631-1.087c3.822-2.517,7.519-5.305,10.992-8.29
				c2.768-2.366,3.071-6.531,0.705-9.292C174.63,238.115,170.459,237.818,167.704,240.177z"/>
			<path d="M293.428,91.474c-0.046,0-0.099,0-0.152,0c-3.578,0-6.498,2.847-6.59,6.438c-0.092,3.849-0.567,7.737-1.417,11.546
				c-0.784,3.552,1.456,7.071,5.008,7.862c0.474,0.099,0.956,0.152,1.43,0.152c3.025,0,5.753-2.089,6.419-5.16
				c1.048-4.639,1.608-9.384,1.74-14.096C299.939,94.591,297.059,91.566,293.428,91.474z"/>
			<path d="M250.033,158.231l-9.167,9.18c-2.59,2.577-2.59,6.735,0,9.318c1.272,1.278,2.972,1.931,4.659,1.931
				c1.687,0,3.361-0.639,4.659-1.931l9.154-9.167c2.59-2.577,2.59-6.742,0.013-9.318
				C256.775,155.654,252.623,155.667,250.033,158.231z"/>
			<path d="M285.171,129.05c-3.012-2.056-7.111-1.278-9.18,1.713c-2.188,3.203-4.712,6.228-7.493,9.002l-0.152,0.158
				c-2.57,2.557-2.498,6.649,0.079,9.226c1.272,1.259,2.946,1.891,4.62,1.891c1.733,0,3.473-0.672,4.778-1.951
				c3.361-3.328,6.399-6.999,9.061-10.873C288.927,135.219,288.17,131.113,285.171,129.05z"/>
			<path d="M65.777,253.858c-3.611-1.733-7.144-3.737-10.504-5.951c-3.025-1.984-7.124-1.16-9.127,1.891
				c-1.997,3.038-1.153,7.124,1.891,9.127c3.835,2.531,7.875,4.804,12.007,6.807c0.923,0.448,1.898,0.659,2.86,0.659
				c2.458,0,4.811-1.371,5.951-3.737C70.436,259.381,69.059,255.433,65.777,253.858z"/>
			<path d="M29.486,222.707c-2.089-2.998-6.188-3.737-9.18-1.661c-2.985,2.076-3.73,6.181-1.667,9.173
				c2.59,3.737,5.456,7.361,8.541,10.788c1.305,1.456,3.104,2.188,4.903,2.188c1.568,0,3.15-0.567,4.422-1.7
				c2.702-2.438,2.926-6.603,0.494-9.312C34.283,229.166,31.753,225.989,29.486,222.707z"/>
			<path d="M6.276,171.945c0.119,0.007,0.211,0.007,0.323,0.007c3.493,0,6.405-2.748,6.577-6.28c0.191-4.04,0.646-8.073,1.338-12.02
				c0.626-3.578-1.766-6.999-5.344-7.631c-3.605-0.626-6.992,1.76-7.631,5.344c-0.797,4.481-1.311,9.101-1.529,13.681
				C-0.176,168.683,2.638,171.78,6.276,171.945z"/>
			<path d="M100.638,262.913c-4.026-0.25-8.06-0.745-11.987-1.489c-3.592-0.659-7.025,1.661-7.71,5.239
				c-0.672,3.565,1.661,7.025,5.239,7.71c4.488,0.85,9.094,1.43,13.687,1.687c0.138,0.013,0.264,0.013,0.395,0.013
				c3.466,0,6.366-2.708,6.557-6.188C107.043,266.241,104.269,263.124,100.638,262.913z"/>
			<path d="M26.448,169.467c-0.158,21.609,8.106,41.846,23.256,56.984c14.992,14.999,35.032,23.263,56.43,23.263
				c21.793,0,42.314-8.527,57.788-23.981l95.278-95.278c9.088-9.088,14.188-20.93,14.353-33.345
				c0.165-12.475-4.659-24.264-13.582-33.181c-8.791-8.804-20.554-13.648-33.102-13.648c-12.758,0-24.765,4.982-33.813,14.043
				c-29.642,29.629-65.234,32.317-93.861,34.492c-23.698,1.799-38.736,3.407-48.759,13.417
				C35.107,127.568,26.586,147.891,26.448,169.467z M100.223,111.936c30.756-2.326,69.057-5.226,102.145-38.314
				c6.564-6.564,15.269-10.175,24.508-10.175c9.009,0,17.45,3.466,23.75,9.766c6.399,6.392,9.852,14.801,9.72,23.698
				c-0.119,8.956-3.849,17.549-10.491,24.192l-95.272,95.285c-12.976,12.982-30.202,20.126-48.463,20.126
				c-17.865,0-34.611-6.887-47.105-19.394c-12.646-12.626-19.533-29.53-19.401-47.586c0.132-18.096,7.275-35.138,20.126-47.995
				C66.475,114.823,79.497,113.505,100.223,111.936z"/>
			<path d="M101.778,208.961c8.804,0,17.081-3.42,23.296-9.661c6.221-6.214,9.654-14.485,9.654-23.289
				c0-8.804-3.433-17.081-9.654-23.302c-6.214-6.221-14.491-9.654-23.296-9.654c-8.804,0-17.081,3.433-23.296,9.654
				c-6.221,6.221-9.654,14.498-9.654,23.302s3.433,17.081,9.648,23.289C84.697,205.527,92.974,208.961,101.778,208.961z
				 M87.801,162.027c3.73-3.73,8.699-5.793,13.977-5.793c5.285,0,10.247,2.069,13.977,5.793c3.73,3.723,5.793,8.699,5.793,13.984
				c0,5.279-2.063,10.247-5.793,13.971c-7.473,7.473-20.482,7.499-27.955-0.007c-3.737-3.717-5.793-8.686-5.793-13.964
				C82.008,170.719,84.071,165.763,87.801,162.027z"/>
			<path d="M222.935,111.903c5.292,0,10.261-2.063,13.977-5.793c7.71-7.71,7.71-20.244,0.013-27.955
				c-7.466-7.453-20.488-7.466-27.968,0c-3.73,3.73-5.793,8.692-5.793,13.977c0,5.292,2.063,10.254,5.793,13.977
				C212.688,109.841,217.657,111.903,222.935,111.903z M218.276,87.474c1.245-1.246,2.906-1.931,4.659-1.931
				c1.766,0,3.414,0.679,4.659,1.931c2.577,2.577,2.577,6.748,0,9.318c-2.484,2.498-6.807,2.498-9.318,0
				c-1.246-1.239-1.931-2.893-1.931-4.659C216.345,90.374,217.037,88.72,218.276,87.474z"/>
		</g>
	</g>
</g>
<g>
</g>
<g>
</g>
<g>
</g>
<g>
</g>
<g>
</g>
<g>
</g>
<g>
</g>
<g>
</g>
<g>
</g>
<g>
</g>
<g>
</g>
<g>
</g>
<g>
</g>
<g>
</g>
<g>
</g>
</svg>
